<svg id="visual" viewBox="0 0 960 540" width="960" height="540" xmlns="http://www.w3.org/2000/svg" xmlns:xlink="http://www.w3.org/1999/xlink" version="1.1"><rect x="0" y="0" width="960" height="540" fill="#131210"></rect><defs><linearGradient id="grad1_0" x1="43.8%" y1="100%" x2="100%" y2="0%"><stop offset="14.444444444444446%" stop-color="#131210" stop-opacity="1"></stop><stop offset="85.55555555555554%" stop-color="#131210" stop-opacity="1"></stop></linearGradient></defs><defs><linearGradient id="grad2_0" x1="0%" y1="100%" x2="56.3%" y2="0%"><stop offset="14.444444444444446%" stop-color="#131210" stop-opacity="1"></stop><stop offset="85.55555555555554%" stop-color="#131210" stop-opacity="1"></stop></linearGradient></defs><g transform="translate(960, 540)"><path d="M-270 0C-257.2 -25.3 -244.4 -50.5 -236.8 -76.9C-229.2 -103.4 -226.7 -131 -215.2 -156.4C-203.7 -181.7 -183.1 -204.7 -158.7 -218.4C-134.3 -232.1 -106.2 -236.4 -79.1 -243.5C-52 -250.5 -26 -260.3 0 -270L0 0Z" fill="#8a3c4c"></path></g><g transform="translate(0, 0)"><path d="M270 0C265.7 28.8 261.4 57.5 249.2 81C237 104.4 216.8 122.6 202.3 146.9C187.7 171.3 178.8 202 158.7 218.4C138.6 234.9 107.4 237.2 79.1 243.5C50.8 249.7 25.4 259.9 0 270L0 0Z" fill="#8a3c4c"></path></g></svg>