<svg id="visual" viewBox="0 0 900 675" width="900" height="675" xmlns="http://www.w3.org/2000/svg" xmlns:xlink="http://www.w3.org/1999/xlink" version="1.1"><rect x="0" y="0" width="900" height="675" fill="#131210"></rect><defs><linearGradient id="grad1_0" x1="25%" y1="100%" x2="100%" y2="0%"><stop offset="23.333333333333336%" stop-color="#131210" stop-opacity="1"></stop><stop offset="76.66666666666666%" stop-color="#131210" stop-opacity="1"></stop></linearGradient></defs><defs><linearGradient id="grad2_0" x1="0%" y1="100%" x2="75%" y2="0%"><stop offset="23.333333333333336%" stop-color="#131210" stop-opacity="1"></stop><stop offset="76.66666666666666%" stop-color="#131210" stop-opacity="1"></stop></linearGradient></defs><g transform="translate(900, 675)"><path d="M-281.2 0C-267.2 -25.2 -253.1 -50.4 -247.3 -80.3C-241.4 -110.3 -243.8 -144.9 -227.5 -165.3C-211.3 -185.8 -176.3 -192.1 -150.5 -207.1C-124.6 -222.1 -107.9 -245.8 -84.4 -259.6C-60.8 -273.4 -30.4 -277.3 0 -281.2L0 0Z" fill="#8a3c4c"></path></g><g transform="translate(0, 0)"><path d="M281.3 0C281.2 32.2 281.1 64.4 264.4 85.9C247.7 107.4 214.3 118.2 198.2 144C182.2 169.8 183.5 210.6 165.3 227.5C147.2 244.5 109.6 237.5 78.8 242.5C48 247.5 24 264.4 0 281.3L0 0Z" fill="#8a3c4c"></path></g></svg>