<svg id="visual" viewBox="0 0 540 960" width="540" height="960" xmlns="http://www.w3.org/2000/svg" xmlns:xlink="http://www.w3.org/1999/xlink" version="1.1"><rect x="0" y="0" width="540" height="960" fill="#131210"></rect><defs><linearGradient id="grad1_0" x1="0%" y1="100%" x2="100%" y2="0%"><stop offset="30%" stop-color="#131210" stop-opacity="1"></stop><stop offset="70%" stop-color="#131210" stop-opacity="1"></stop></linearGradient></defs><defs><linearGradient id="grad2_0" x1="0%" y1="100%" x2="100%" y2="0%"><stop offset="30%" stop-color="#131210" stop-opacity="1"></stop><stop offset="70%" stop-color="#131210" stop-opacity="1"></stop></linearGradient></defs><g transform="translate(540, 960)"><path d="M-270 0C-263.6 -28.4 -257.2 -56.7 -242.5 -78.8C-227.8 -100.9 -204.8 -116.7 -189.3 -137.5C-173.8 -158.4 -165.9 -184.2 -149.9 -206.3C-133.9 -228.4 -109.8 -246.8 -83.4 -256.8C-57.1 -266.8 -28.6 -268.4 0 -270L0 0Z" fill="#8a3c4c"></path></g><g transform="translate(0, 0)"><path d="M270 0C264.5 28.5 259 57 246.3 80C233.6 103.1 213.7 120.7 199.8 145.2C185.9 169.6 178.1 200.8 158.7 218.4C139.3 236 108.4 240 80 246.3C51.7 252.6 25.8 261.3 0 270L0 0Z" fill="#8a3c4c"></path></g></svg>